<?xml version="1.0" standalone="no"?>
<!DOCTYPE svg PUBLIC "-//W3C//DTD SVG 20010904//EN"
 "http://www.w3.org/TR/2001/REC-SVG-20010904/DTD/svg10.dtd">
<svg version="1.0" xmlns="http://www.w3.org/2000/svg"
 width="767.000000pt" height="684.000000pt" viewBox="0 0 767.000000 684.000000"
 preserveAspectRatio="xMidYMid meet">

<g transform="translate(0.000000,684.000000) scale(0.100000,-0.100000)"
fill="#000000" stroke="none">
<path d="M4328 1533 c-8 -10 -59 -126 -112 -258 -54 -132 -118 -287 -142 -343
-49 -115 -51 -124 -29 -142 30 -25 52 -2 93 98 l40 97 174 3 174 2 40 -96 c42
-103 62 -126 92 -108 9 6 18 18 20 27 4 19 -274 695 -296 720 -8 9 -20 17 -27
17 -7 0 -19 -8 -27 -17z m107 -321 c30 -74 55 -135 55 -138 0 -2 -61 -4 -135
-4 -74 0 -135 4 -135 9 0 7 70 181 116 288 l16 38 14 -30 c7 -16 38 -90 69
-163z"/>
<path d="M6128 1535 c-92 -34 -138 -96 -138 -189 0 -114 60 -172 226 -216 149
-40 209 -99 185 -181 -32 -105 -208 -126 -334 -39 -68 47 -83 49 -99 15 -10
-23 -8 -29 21 -59 53 -55 142 -89 231 -90 97 0 151 16 202 62 49 44 68 85 68
149 0 108 -65 173 -213 213 -88 24 -165 59 -186 84 -8 9 -16 35 -18 59 -9 76
57 127 162 127 64 0 107 -14 161 -52 35 -25 45 -28 63 -19 50 27 1 94 -95 130
-64 24 -178 27 -236 6z"/>
<path d="M1102 1528 c-16 -16 -15 -33 4 -52 12 -13 39 -16 125 -16 l109 0 0
-323 c0 -311 1 -325 20 -342 17 -15 24 -16 45 -7 l25 12 0 330 0 330 88 1 c48
1 95 1 104 0 46 -5 82 58 42 73 -9 3 -136 6 -283 6 -194 0 -270 -3 -279 -12z"/>
<path d="M1833 1529 c-10 -10 -13 -98 -13 -371 l0 -358 26 -10 c49 -19 54 -3
54 156 l0 144 139 0 c77 0 151 -4 165 -10 39 -14 56 -50 66 -141 10 -87 28
-124 69 -145 53 -27 84 23 42 65 -13 13 -22 40 -26 78 -9 92 -22 128 -59 164
l-35 34 35 28 c109 91 102 259 -14 342 l-44 30 -196 3 c-148 2 -200 0 -209 -9z
m387 -84 c40 -20 60 -63 60 -125 0 -62 -20 -104 -63 -130 -28 -17 -51 -20
-174 -20 l-143 0 0 145 0 145 145 0 c111 0 153 -4 175 -15z"/>
<path d="M2566 1531 c-3 -4 -6 -169 -6 -366 -1 -307 1 -361 14 -373 12 -13 20
-13 41 -4 l25 12 0 358 c0 265 -3 361 -12 370 -14 14 -54 16 -62 3z"/>
<path d="M2847 1533 c-4 -3 -7 -170 -7 -369 0 -349 1 -364 19 -374 25 -13 27
-13 45 6 13 12 16 41 16 155 l0 139 128 0 c102 0 135 4 167 19 82 38 125 111
125 210 0 94 -41 165 -114 200 -37 19 -61 21 -207 21 -91 0 -169 -3 -172 -7z
m363 -98 c50 -45 63 -123 30 -190 -31 -65 -58 -75 -199 -75 l-121 0 0 146 0
146 134 -4 c117 -3 137 -6 156 -23z"/>
<path d="M3442 1528 c-20 -20 -14 -48 14 -58 14 -6 70 -10 125 -10 l99 0 0
-324 c0 -282 2 -327 16 -340 20 -20 38 -20 58 0 14 13 16 58 16 340 l0 324 99
0 c55 0 111 4 125 10 28 10 34 38 14 58 -17 17 -549 17 -566 0z"/>
<path d="M4810 1521 c-6 -13 -10 -146 -10 -364 0 -320 1 -345 18 -360 16 -15
46 -17 211 -17 113 0 200 4 212 10 25 14 26 60 1 67 -10 2 -92 5 -183 6 l-164
2 -3 324 c-1 219 -6 329 -13 338 -17 19 -57 16 -69 -6z"/>
<path d="M5400 1521 c-6 -13 -10 -145 -10 -360 0 -328 1 -342 20 -361 19 -19
33 -20 224 -20 173 0 207 2 220 16 19 19 20 25 4 47 -11 14 -38 17 -193 19
l-180 3 -3 133 -3 132 155 0 c127 0 157 3 170 16 9 8 16 21 16 28 0 31 -25 36
-182 36 l-158 0 0 125 0 125 179 0 c150 0 182 3 195 16 19 18 19 20 6 45 -10
18 -23 19 -230 19 -207 0 -220 -1 -230 -19z"/>
</g>
</svg>
